<svg class="logo-paths" width="115" height="25" viewBox="0 0 115 25" fill="none"
            xmlns="http://www.w3.org/2000/svg">
            <path
              d="M30.825 24.3291C36.5805 24.3291 40.3627 20.5526 40.3627 14.6417V1.01367H36.0872V14.6417C36.0872 17.9255 33.785 20.2242 30.825 20.2242C27.8651 20.2242 25.5629 17.9255 25.5629 14.6417V1.01367H21.2874V14.6417C21.2874 20.5526 25.0695 24.3291 30.825 24.3291Z"
              fill="#1C1C1C" />
            <path
              d="M49.7269 24.0007H54.0025V16.1194L62.389 1.01367H57.6202L52.1936 10.8652H51.5358L46.1092 1.01367H41.3404L49.7269 16.1194V24.0007Z"
              fill="#1C1C1C" />
            <path
              d="M63.544 24.0007H67.8195V8.07396H68.4773L73.9039 24.0007H78.5083L83.9349 8.07396H84.5927V24.0007H88.8682V1.01367H81.9616L76.535 17.1046H75.8772L70.4506 1.01367H63.544V24.0007Z"
              fill="#1C1C1C" />
            <path d="M92.4734 23.9911H107.566V19.888H96.7388V1.01367H92.4734V23.9911Z" fill="#1C1C1C" />
            <path
              d="M0 23.9911H4.27816V14.4719H14.6445V23.9911H18.9226V1.01367H14.6445V10.2047H4.27816V1.01367H0V23.9911Z"
              fill="#1C1C1C" />
            <path
              d="M108.693 12.5025C112.322 12.5025 115 9.81095 115 6.25123C115 2.6915 112.322 0 108.693 0C105.064 0 102.385 2.6915 102.385 6.25123C102.385 9.81095 105.064 12.5025 108.693 12.5025ZM108.693 10.766C106.101 10.766 104.2 8.8559 104.2 6.25123C104.2 3.64655 106.101 1.73645 108.693 1.73645C111.285 1.73645 113.186 3.64655 113.186 6.25123C113.186 8.8559 111.285 10.766 108.693 10.766ZM108.779 9.46366C111.285 9.46366 111.803 6.94581 111.803 6.94581H110.075C110.075 6.94581 109.816 7.90086 108.779 7.90086C107.915 7.90086 107.31 7.2931 107.31 6.25123C107.31 5.20935 107.915 4.6016 108.779 4.6016C109.816 4.6016 110.075 5.46982 110.075 5.46982H111.803C111.803 5.46982 111.285 3.03879 108.779 3.03879C106.965 3.03879 105.582 4.42795 105.582 6.25123C105.582 8.0745 106.965 9.46366 108.779 9.46366Z"
              fill="#1C1C1C" />
          </svg>